<svg xmlns="http://www.w3.org/2000/svg"  viewBox="0 0 96 96" width="96px" height="96px" baseProfile="basic"><path fill="#4d4dff" d="M74.102,82.001c-0.05,0-0.101,0-0.152-0.001L22,82c-2.08,0-4.023-0.8-5.473-2.252	c-1.63-1.634-2.525-3.991-2.519-6.635C14.073,44.444,14.001,22.231,14,22.01c0-4.411,3.586-8,7.993-8.01	c22.154-0.051,37.794-0.067,46.489-0.054c4.042,0.007,8.152,0.388,10.823,3.1c2.54,2.58,2.819,6.353,2.778,9.353l-0.013,0.955	c-0.105,7.64-0.28,20.427-0.07,38.612c0.012,1.056-0.523,1.991-1.341,2.535c0.705,0.468,1.208,1.229,1.319,2.134	c0.436,3.548-0.41,6.894-2.261,8.952C78.294,81.167,76.355,82.001,74.102,82.001z M61.438,19.941c-9.133,0-22.342,0.02-39.431,0.059	C20.9,20.002,20,20.9,20,22c0,0.211,0.073,22.439,0.008,51.126c-0.002,1.039,0.27,1.885,0.767,2.383C21.1,75.835,21.512,76,22,76h52	c0.74,0.021,1.061-0.209,1.257-0.427c0.665-0.739,0.979-2.469,0.766-4.208c-0.143-1.166,0.403-2.257,1.318-2.866	c-0.798-0.531-1.329-1.435-1.341-2.465c-0.21-18.261-0.034-31.096,0.071-38.764l0.013-0.954c0.036-2.649-0.309-4.305-1.054-5.062	c-0.874-0.887-2.958-1.303-6.559-1.31C66.488,19.943,64.141,19.941,61.438,19.941z" opacity=".3"/><path fill="#4d4dff" d="M74.101,81.001c-0.045,0-0.089,0-0.134-0.001L22,81c-1.812,0-3.504-0.696-4.765-1.959	c-1.441-1.445-2.232-3.549-2.227-5.926C15.073,44.443,15.001,22.228,15,22.007c0-3.858,3.138-6.998,6.996-7.007	c22.153-0.051,37.793-0.07,46.484-0.054c5.232,0.009,8.162,0.821,10.112,2.801c1.78,1.807,2.548,4.471,2.492,8.638l-0.013,0.954	c-0.105,7.645-0.28,20.439-0.07,38.638c0.013,1.104-0.873,2.01-1.977,2.023c-0.008,0-0.016,0-0.023,0c-1.094,0-1.987-0.88-2-1.977	c-0.21-18.249-0.034-31.075,0.071-38.738l0.013-0.954c0.041-2.97-0.386-4.806-1.341-5.776c-1.088-1.105-3.331-1.601-7.269-1.608	C59.786,18.932,44.152,18.949,22.004,19C20.348,19.004,19,20.35,19,22c0.001,0.214,0.073,22.44,0.008,51.124	c-0.003,1.307,0.373,2.405,1.059,3.092C20.579,76.729,21.247,77,22,77h52c0.902,0.011,1.522-0.227,2-0.758	c0.871-0.968,1.27-2.93,1.016-4.999c-0.135-1.096,0.645-2.094,1.741-2.229c1.096-0.135,2.095,0.645,2.229,1.741	c0.401,3.265-0.351,6.315-2.011,8.161C77.746,80.282,76.063,81.001,74.101,81.001z" opacity=".3"/><path fill="#0fd2ff" d="M63.251,64.061c-4.124,0-5.578-1.077-9.099-6c-0.03-0.035-0.061-0.069-0.09-0.103	c-0.092,1.46-0.464,3.016-1.586,4.249c-0.708,0.778-2.001,1.72-4.143,1.789c-5.887,0.153-11.051-4.5-14.346-8.466	c-4.412-5.313-8.467-13.074-8.008-17.375c-0.034-0.979,0.288-1.917,0.922-2.646c1.544-1.771,4.125-1.619,6.199-1.499	c0.315,0.018,0.723,0.027,0.937,0.042C34.22,34.017,34.405,34,34.591,34c2.736,0,3.893,1.755,4.409,2.961	c0.021-1.616,1.323-2.933,2.95-2.96l2.151-0.042c5.005-0.105,7.074-0.149,8.7,1.539c1.463,1.518,1.35,3.454,1.22,5.696	c-0.013,0.229-0.027,0.466-0.041,0.714c0.178-0.344,0.35-0.679,0.516-1.004c1.849-3.612,3.446-6.732,6.953-6.899l0.478-0.028	c3.009-0.186,5.624-0.204,7.144,1.475c0.745,0.822,1.069,1.926,0.89,3.029c-0.474,2.93-4.29,9.032-5.738,11.264	c0.473,0.876,1.595,2.349,2.316,3.296c2.407,3.158,4.485,5.885,3.19,8.597c-0.404,0.848-1.486,2.282-4.183,2.36l-1.062,0.037	C64.048,64.051,63.638,64.061,63.251,64.061z M54.831,50.711c1.228,0.725,2.539,1.897,3.948,3.524	c0.062,0.071,0.12,0.145,0.174,0.222c1.142,1.602,2.284,3.133,2.904,3.489c0.163,0.094,0.472,0.128,0.962,0.13	c-0.367-0.501-0.747-1-1.051-1.399c-2.498-3.277-5.081-6.667-2.966-9.6c1.009-1.484,3.016-4.77,4.235-7.154	c-0.306,0.015-0.57,0.031-0.739,0.042l-0.321,0.019c-0.53,0.51-1.454,2.314-2.139,3.654c-0.736,1.438-1.571,3.069-2.645,4.834	C56.733,49.226,55.88,50.093,54.831,50.711z M32.063,39.962c0.62,2.565,3.267,8.25,7.651,13.004c3,3.253,5.932,5.035,8.278,5.035	c0.015,0,0.03,0,0.045,0c0.097-0.583,0.029-1.678-0.007-2.251c-0.03-0.496-0.057-0.957-0.057-1.355c0-2.017,0.82-3.135,1.598-3.741	c-0.872-0.708-1.435-1.805-1.582-3.156c-0.006-0.052-0.01-0.104-0.013-0.157c-0.159-2.855-0.036-4.959,0.053-6.495	c0.017-0.294,0.036-0.618,0.049-0.916c-0.526-0.02-1.211-0.019-1.973-0.008c0.486,0.479,0.813,1.125,0.881,1.857	c0.271,2.896,0.904,9.676-3.573,10.575c-3.604,0.715-6.851-3.421-9.69-12.309c-0.305-0.008-0.627-0.027-0.973-0.047	C32.56,39.988,32.317,39.974,32.063,39.962z M63.744,50.474c-0.045,0.068-0.071,0.106-0.075,0.111	C63.696,50.548,63.721,50.511,63.744,50.474z M39.653,38.869c0.466,1.391,0.931,2.583,1.371,3.586	c-0.004-0.039-0.007-0.077-0.011-0.116c-0.084-0.896,0.235-1.737,0.81-2.343C40.946,39.945,40.168,39.517,39.653,38.869z M61.75,39.997l-0.015,0.001C61.741,39.997,61.746,39.997,61.75,39.997z M33.761,34.117c-0.001,0-0.001,0-0.002,0	C33.76,34.118,33.76,34.117,33.761,34.117z" opacity=".3"/><path fill="#0fd2ff" d="M63.099,63.065c-3.465,0-4.735-0.832-8.161-5.626c-0.764-0.876-1.408-1.48-1.909-1.885	c0.113,1.839,0.232,4.304-1.292,5.979c-0.578,0.635-1.643,1.404-3.435,1.462c-5.486,0.193-10.393-4.31-13.544-8.105	c-4.221-5.083-8.279-12.764-7.776-16.703c-0.046-0.756,0.187-1.462,0.675-2.022c1.221-1.401,3.434-1.271,5.387-1.157	c0.385,0.022,0.901,0.055,1.108,0.041C34.295,35.017,34.443,35,34.591,35c2.757,0,3.458,2.165,3.758,3.089	c1.393,4.459,2.803,7.141,3.743,8.452c0.085-0.843,0.113-2.193-0.083-4.295c-0.103-1.1,0.706-2.075,1.805-2.177	c1.089-0.106,2.074,0.705,2.177,1.805c0.382,4.087,0.412,8.861-2.774,9.501c-4.011,0.805-7.163-7.217-8.68-12.073	c-0.035-0.107-0.065-0.194-0.092-0.264c-0.461,0.032-0.991,0.001-1.636-0.037c-0.469-0.027-1.296-0.076-1.884-0.048	c-0.02,1.881,2.397,7.948,6.91,13.382c3.648,4.395,7.322,6.762,10.337,6.663c0.144-0.004,0.49-0.029,0.606-0.157	c0.418-0.459,0.31-2.212,0.251-3.154c-0.029-0.473-0.055-0.913-0.055-1.293c0-2.299,1.229-3.1,1.962-3.374	c1.875-0.699,4.259,0.604,7.085,3.869c0.041,0.047,0.08,0.097,0.116,0.148c2.94,4.123,2.941,4.119,6.156,4	c0.124-0.005,0.251-0.01,0.381-0.015c-0.547-0.897-1.479-2.119-2.113-2.952c-2.382-3.125-4.631-6.077-2.951-8.409	c0.96-1.403,3.908-6.162,5.01-8.763c-0.583-0.017-1.38,0.005-2.386,0.067l-0.548,0.032c-0.615,0.029-1.844,2.431-2.741,4.184	c-0.729,1.423-1.554,3.036-2.609,4.77c-0.673,1.106-2.812,2.973-4.923,2.504c-0.504-0.113-2.17-0.666-2.43-3.066	c-0.004-0.035-0.007-0.07-0.009-0.105c-0.155-2.798-0.035-4.869,0.053-6.381c0.041-0.692,0.085-1.457,0.062-1.889	c-0.801-0.143-2.791-0.101-4.884-0.057L42.034,39c-0.012,0-0.023,0-0.034,0c-1.089,0-1.981-0.874-1.999-1.966	c-0.019-1.104,0.861-2.015,1.966-2.033l2.155-0.042c4.693-0.098,6.635-0.14,7.959,1.233c1.159,1.203,1.067,2.772,0.941,4.944	c-0.069,1.188-0.16,2.747-0.103,4.737c0.001-0.002,0.003-0.005,0.005-0.007c0.975-1.603,1.765-3.146,2.461-4.507	c1.778-3.473,3.182-6.217,6.111-6.356l0.492-0.029c2.748-0.169,5.12-0.2,6.341,1.148c0.547,0.604,0.776,1.385,0.644,2.198	c-0.479,2.959-4.838,9.741-5.889,11.339c0.285,0.871,1.754,2.799,2.66,3.987c2.299,3.016,4.114,5.399,3.083,7.56	c-0.374,0.784-1.252,1.732-3.31,1.791l-1.071,0.038C63.961,63.054,63.514,63.065,63.099,63.065z M52.992,54.143L52.992,54.143	L52.992,54.143z M62.893,49.948c-0.021,0.031-0.033,0.049-0.036,0.053C62.87,49.983,62.882,49.966,62.893,49.948z M41.817,47.813	L41.817,47.813L41.817,47.813z M52.984,47.096L52.984,47.096L52.984,47.096z M34.105,35.06c-0.025,0.006-0.048,0.012-0.069,0.019	C34.059,35.072,34.082,35.066,34.105,35.06z" opacity=".3"/><path fill="#4d4dff" d="M74.099,80.001c-0.039,0-0.077,0-0.116-0.001H22c-1.544,0-2.985-0.591-4.057-1.665	c-1.252-1.255-1.94-3.108-1.935-5.218C16.073,44.442,16.001,22.225,16,22.003c0-3.304,2.69-5.996,5.998-6.003	c22.153-0.05,37.79-0.068,46.481-0.054c4.935,0.009,7.659,0.734,9.401,2.503c1.577,1.601,2.256,4.044,2.204,7.922l-0.013,0.954	c-0.105,7.649-0.28,20.452-0.07,38.663c0.006,0.552-0.436,1.005-0.988,1.012c-0.575-0.002-1.005-0.436-1.012-0.988	c-0.21-18.236-0.034-31.055,0.071-38.713l0.013-0.954c0.045-3.3-0.458-5.302-1.629-6.492c-1.309-1.329-3.695-1.899-7.98-1.906	C59.789,17.93,44.153,17.949,22.002,18C19.795,18.005,18,19.799,18,22c0.001,0.218,0.073,22.44,0.008,51.122	c-0.003,1.574,0.476,2.923,1.351,3.8C20.063,77.627,20.976,78,22,78h52c1.172,0.026,2.067-0.337,2.744-1.089	c1.281-1.424,1.493-3.924,1.264-5.789c-0.067-0.548,0.323-1.047,0.871-1.115c0.549-0.063,1.047,0.322,1.115,0.871	c0.366,2.981-0.293,5.737-1.763,7.371C77.197,79.396,75.771,80.001,74.099,80.001z"/><path fill="#0fd2ff" d="M63.045,62.068c-3.141,0-4.112-0.749-7.349-5.288c-1.862-2.145-3.218-2.891-3.656-2.941	c-0.028,0.082-0.066,0.25-0.066,0.556c0,0.325,0.024,0.703,0.049,1.108c0.109,1.765,0.245,3.961-1.027,5.358	c-0.651,0.716-1.569,1.098-2.728,1.136c-5.069,0.147-9.733-4.121-12.742-7.745c-4.649-5.6-8.042-12.846-7.54-16.035	c-0.052-0.528,0.095-1.017,0.423-1.394c0.899-1.031,2.851-0.916,4.574-0.816c0.488,0.029,1.157,0.068,1.343,0.03	C34.394,36.022,34.523,36,34.591,36c1.873,0,2.431,1.237,2.807,2.397c2.344,7.502,4.667,9.975,5.254,10.033	c-0.025-0.023,0.852-0.932,0.353-6.277c-0.051-0.55,0.353-1.038,0.902-1.089c0.556-0.048,1.038,0.354,1.089,0.902	c0.502,5.378-0.125,8.056-1.976,8.428c-3.467,0.692-6.639-8.542-7.528-11.39C35.195,38.087,35.058,38.008,34.7,38	c-0.417,0.079-0.969,0.053-1.832,0.002c-0.728-0.042-2.371-0.139-2.878,0.096c0.013,0.117,0.01,0.249-0.013,0.354	c-0.473,2.142,2.584,9.097,7.089,14.521c3.85,4.637,7.792,7.149,11.139,7.023c0.606-0.02,1.036-0.178,1.313-0.483	c0.702-0.772,0.591-2.573,0.51-3.889c-0.028-0.45-0.053-0.87-0.053-1.231c0-1.61,0.713-2.213,1.312-2.437	c1.797-0.668,4.245,1.581,5.98,3.587c3.311,4.635,3.525,4.629,7.066,4.492c0.339-0.013,0.704-0.027,1.099-0.038	c0.57-0.017,0.722-0.132,0.724-0.133c0.098-0.602-1.714-2.98-2.797-4.401c-2.244-2.945-4.182-5.488-2.935-7.218	c0.476-0.686,4.922-7.603,5.542-10.176c-0.507-0.192-1.779-0.226-3.792-0.103L61.64,38c-1.193,0.057-2.248,2.118-3.583,4.727	c-0.721,1.408-1.538,3.003-2.573,4.706c-0.56,0.918-2.326,2.385-3.852,2.047c-0.542-0.121-1.477-0.567-1.653-2.198	c-0.157-2.794-0.038-4.832,0.048-6.32c0.076-1.305,0.141-2.431-0.106-2.688c-0.412-0.427-2.645-0.379-5.735-0.315l-2.168,0.042	c-0.005,0-0.011,0-0.017,0c-0.544,0-0.99-0.437-1-0.983c-0.009-0.552,0.431-1.007,0.983-1.017l2.16-0.042	c4.512-0.094,6.198-0.13,7.217,0.927c0.855,0.887,0.783,2.131,0.663,4.192c-0.084,1.44-0.198,3.412-0.052,6.04	c0.036,0.321,0.128,0.428,0.129,0.429c0.271,0.057,1.333-0.594,1.674-1.155c0.998-1.64,1.796-3.2,2.501-4.577	c1.694-3.31,2.918-5.701,5.268-5.813l0.506-0.029c2.392-0.146,4.616-0.197,5.538,0.821c0.339,0.374,0.48,0.859,0.398,1.367	c-0.492,3.038-5.887,11.182-5.94,11.256c-0.276,0.665,1.871,3.482,2.903,4.836c2.092,2.745,3.744,4.914,2.976,6.523	c-0.37,0.775-1.189,1.186-2.436,1.222l-1.08,0.038C63.91,62.055,63.458,62.068,63.045,62.068z M52.068,53.773L52.068,53.773	L52.068,53.773z"/></svg>